<mxfile host="Electron" modified="2024-10-25T14:12:22.396Z" agent="Mozilla/5.0 (X11; Linux x86_64) AppleWebKit/537.36 (KHTML, like Gecko) draw.io/24.6.4 Chrome/124.0.6367.207 Electron/30.0.6 Safari/537.36" etag="07P7HFgqch5cpKaKvlsp" version="24.6.4" type="device">
  <diagram name="Page-1" id="McOUifjXpkMoaRvFPcwU">
    <mxGraphModel dx="309" dy="176" grid="1" gridSize="10" guides="1" tooltips="1" connect="1" arrows="1" fold="1" page="1" pageScale="1" pageWidth="850" pageHeight="1100" math="0" shadow="0">
      <root>
        <mxCell id="0" />
        <mxCell id="1" parent="0" />
        <mxCell id="QAgMmHnV4qorRCx6iJZ6-1" value="" style="triangle;whiteSpace=wrap;html=1;aspect=fixed;fillColor=#000000;" vertex="1" parent="1">
          <mxGeometry x="393" y="350" width="12" height="12" as="geometry" />
        </mxCell>
        <mxCell id="QAgMmHnV4qorRCx6iJZ6-2" value="" style="ellipse;whiteSpace=wrap;html=1;aspect=fixed;fillColor=#FF0000;strokeColor=#f50000;" vertex="1" parent="1">
          <mxGeometry x="419" y="350" width="12" height="12" as="geometry" />
        </mxCell>
        <mxCell id="QAgMmHnV4qorRCx6iJZ6-3" value="" style="whiteSpace=wrap;html=1;aspect=fixed;fillColor=#000000;" vertex="1" parent="1">
          <mxGeometry x="450" y="350" width="12" height="12" as="geometry" />
        </mxCell>
        <mxCell id="QAgMmHnV4qorRCx6iJZ6-4" value="" style="ellipse;whiteSpace=wrap;html=1;aspect=fixed;fillColor=#009900;strokeColor=#009900;" vertex="1" parent="1">
          <mxGeometry x="419" y="370" width="12" height="12" as="geometry" />
        </mxCell>
        <mxCell id="QAgMmHnV4qorRCx6iJZ6-10" value="" style="group" vertex="1" connectable="0" parent="1">
          <mxGeometry x="392" y="370" width="12" height="12" as="geometry" />
        </mxCell>
        <mxCell id="QAgMmHnV4qorRCx6iJZ6-7" value="" style="ellipse;whiteSpace=wrap;html=1;aspect=fixed;fillColor=none;strokeColor=#000000;" vertex="1" parent="QAgMmHnV4qorRCx6iJZ6-10">
          <mxGeometry width="12" height="12" as="geometry" />
        </mxCell>
        <mxCell id="QAgMmHnV4qorRCx6iJZ6-8" value="" style="endArrow=none;html=1;rounded=0;endSize=4;startSize=4;" edge="1" parent="QAgMmHnV4qorRCx6iJZ6-10">
          <mxGeometry width="50" height="50" relative="1" as="geometry">
            <mxPoint x="6.930000000000007" y="9" as="sourcePoint" />
            <mxPoint x="6.930000000000007" y="3" as="targetPoint" />
          </mxGeometry>
        </mxCell>
        <mxCell id="QAgMmHnV4qorRCx6iJZ6-9" value="" style="endArrow=none;html=1;rounded=0;endSize=4;startSize=4;" edge="1" parent="QAgMmHnV4qorRCx6iJZ6-10">
          <mxGeometry width="50" height="50" relative="1" as="geometry">
            <mxPoint x="4.930000000000007" y="9" as="sourcePoint" />
            <mxPoint x="4.930000000000007" y="3" as="targetPoint" />
          </mxGeometry>
        </mxCell>
        <mxCell id="QAgMmHnV4qorRCx6iJZ6-22" value="" style="group;aspect=fixed;" vertex="1" connectable="0" parent="1">
          <mxGeometry x="446" y="400" width="12" height="18.6" as="geometry" />
        </mxCell>
        <mxCell id="QAgMmHnV4qorRCx6iJZ6-12" value="" style="rounded=1;whiteSpace=wrap;html=1;strokeWidth=2;aspect=fixed;" vertex="1" parent="QAgMmHnV4qorRCx6iJZ6-22">
          <mxGeometry y="6.6" width="11.999999999999996" height="11.999999999999996" as="geometry" />
        </mxCell>
        <mxCell id="QAgMmHnV4qorRCx6iJZ6-15" value="" style="shape=delay;whiteSpace=wrap;html=1;direction=north;strokeWidth=2;aspect=fixed;" vertex="1" parent="QAgMmHnV4qorRCx6iJZ6-22">
          <mxGeometry x="3" width="5.999999999999998" height="6.599999999999996" as="geometry" />
        </mxCell>
        <mxCell id="QAgMmHnV4qorRCx6iJZ6-23" value="" style="group;aspect=fixed;" vertex="1" connectable="0" parent="1">
          <mxGeometry x="470" y="400" width="12" height="18.6" as="geometry" />
        </mxCell>
        <mxCell id="QAgMmHnV4qorRCx6iJZ6-18" value="" style="shape=delay;whiteSpace=wrap;html=1;direction=north;strokeWidth=2;" vertex="1" parent="QAgMmHnV4qorRCx6iJZ6-23">
          <mxGeometry x="3" width="6" height="6.6" as="geometry" />
        </mxCell>
        <mxCell id="QAgMmHnV4qorRCx6iJZ6-21" value="" style="rounded=1;whiteSpace=wrap;html=1;strokeWidth=0;strokeColor=none;" vertex="1" parent="QAgMmHnV4qorRCx6iJZ6-23">
          <mxGeometry y="1.8000000000000005" width="6" height="4.200000000000001" as="geometry" />
        </mxCell>
        <mxCell id="QAgMmHnV4qorRCx6iJZ6-17" value="" style="rounded=1;whiteSpace=wrap;html=1;strokeWidth=2;" vertex="1" parent="QAgMmHnV4qorRCx6iJZ6-23">
          <mxGeometry y="6.6" width="12" height="12.000000000000002" as="geometry" />
        </mxCell>
      </root>
    </mxGraphModel>
  </diagram>
</mxfile>
